<mxfile host="app.diagrams.net" modified="2022-04-06T22:59:55.017Z" agent="5.0 (X11)" etag="78M77KbSzTTOMjJS8ru1" version="17.4.0" type="github">
  <diagram id="R2lEEEUBdFMjLlhIrx00" name="Page-1">
    <mxGraphModel dx="2622" dy="788" grid="1" gridSize="10" guides="1" tooltips="1" connect="1" arrows="1" fold="1" page="1" pageScale="1" pageWidth="1200" pageHeight="1600" math="0" shadow="0" extFonts="Permanent Marker^https://fonts.googleapis.com/css?family=Permanent+Marker">
      <root>
        <mxCell id="0" />
        <mxCell id="1" parent="0" />
        <mxCell id="CzM0XpDcJFoaD7P1eEA3-51" value="" style="edgeStyle=orthogonalEdgeStyle;rounded=0;orthogonalLoop=1;jettySize=auto;html=1;startArrow=none;startFill=0;endArrow=none;endFill=0;strokeColor=default;entryX=1;entryY=0.5;entryDx=0;entryDy=0;exitX=0;exitY=0.5;exitDx=0;exitDy=0;fontFamily=Verdana;" parent="1" target="CzM0XpDcJFoaD7P1eEA3-50" edge="1">
          <mxGeometry relative="1" as="geometry">
            <mxPoint x="520" y="650" as="sourcePoint" />
          </mxGeometry>
        </mxCell>
        <mxCell id="CzM0XpDcJFoaD7P1eEA3-2" value="Mobile Phone" style="whiteSpace=wrap;html=1;align=center;" parent="1" vertex="1">
          <mxGeometry x="520.5" y="367" width="100" height="40" as="geometry" />
        </mxCell>
        <mxCell id="CzM0XpDcJFoaD7P1eEA3-4" value="Fixed Internet" style="whiteSpace=wrap;html=1;align=center;" parent="1" vertex="1">
          <mxGeometry x="920.5" y="330" width="100" height="40" as="geometry" />
        </mxCell>
        <mxCell id="CzM0XpDcJFoaD7P1eEA3-6" value="Mobile Internet" style="whiteSpace=wrap;html=1;align=center;" parent="1" vertex="1">
          <mxGeometry x="920.5" y="400" width="100" height="40" as="geometry" />
        </mxCell>
        <mxCell id="CzM0XpDcJFoaD7P1eEA3-54" value="" style="edgeStyle=orthogonalEdgeStyle;rounded=0;orthogonalLoop=1;jettySize=auto;html=1;startArrow=none;startFill=0;endArrow=none;endFill=0;strokeColor=default;fontFamily=Verdana;exitX=0.15;exitY=1;exitDx=0;exitDy=0;exitPerimeter=0;" parent="1" source="CzM0XpDcJFoaD7P1eEA3-23" target="CzM0XpDcJFoaD7P1eEA3-53" edge="1">
          <mxGeometry relative="1" as="geometry">
            <mxPoint x="210" y="680" as="sourcePoint" />
            <Array as="points" />
          </mxGeometry>
        </mxCell>
        <mxCell id="CzM0XpDcJFoaD7P1eEA3-56" value="" style="edgeStyle=orthogonalEdgeStyle;rounded=0;orthogonalLoop=1;jettySize=auto;html=1;startArrow=none;startFill=0;endArrow=none;endFill=0;strokeColor=default;exitX=0.75;exitY=1;exitDx=0;exitDy=0;entryX=0.5;entryY=0;entryDx=0;entryDy=0;fontFamily=Verdana;" parent="1" source="CzM0XpDcJFoaD7P1eEA3-23" target="CzM0XpDcJFoaD7P1eEA3-57" edge="1">
          <mxGeometry relative="1" as="geometry">
            <mxPoint x="280" y="780" as="targetPoint" />
          </mxGeometry>
        </mxCell>
        <mxCell id="CzM0XpDcJFoaD7P1eEA3-68" value="" style="edgeStyle=orthogonalEdgeStyle;rounded=0;orthogonalLoop=1;jettySize=auto;html=1;startArrow=none;startFill=0;endArrow=none;endFill=0;strokeColor=default;fontFamily=Verdana;" parent="1" source="CzM0XpDcJFoaD7P1eEA3-23" target="CzM0XpDcJFoaD7P1eEA3-67" edge="1">
          <mxGeometry relative="1" as="geometry" />
        </mxCell>
        <mxCell id="CzM0XpDcJFoaD7P1eEA3-23" value="Service Package" style="whiteSpace=wrap;html=1;align=center;fontFamily=Verdana;" parent="1" vertex="1">
          <mxGeometry x="190" y="630" width="100" height="40" as="geometry" />
        </mxCell>
        <mxCell id="CzM0XpDcJFoaD7P1eEA3-60" value="" style="edgeStyle=orthogonalEdgeStyle;rounded=0;orthogonalLoop=1;jettySize=auto;html=1;startArrow=none;startFill=0;endArrow=none;endFill=0;strokeColor=default;fontFamily=Verdana;" parent="1" source="CzM0XpDcJFoaD7P1eEA3-28" target="CzM0XpDcJFoaD7P1eEA3-59" edge="1">
          <mxGeometry relative="1" as="geometry" />
        </mxCell>
        <mxCell id="CzM0XpDcJFoaD7P1eEA3-28" value="Optional Product" style="whiteSpace=wrap;html=1;align=center;fontFamily=Verdana;" parent="1" vertex="1">
          <mxGeometry x="10" y="770" width="100" height="40" as="geometry" />
        </mxCell>
        <mxCell id="CzM0XpDcJFoaD7P1eEA3-63" value="" style="edgeStyle=orthogonalEdgeStyle;rounded=0;orthogonalLoop=1;jettySize=auto;html=1;startArrow=none;startFill=0;endArrow=none;endFill=0;strokeColor=default;" parent="1" source="CzM0XpDcJFoaD7P1eEA3-29" target="CzM0XpDcJFoaD7P1eEA3-62" edge="1">
          <mxGeometry relative="1" as="geometry" />
        </mxCell>
        <mxCell id="CzM0XpDcJFoaD7P1eEA3-29" value="Validity Period" style="whiteSpace=wrap;html=1;align=center;" parent="1" vertex="1">
          <mxGeometry x="10" y="880" width="100" height="40" as="geometry" />
        </mxCell>
        <mxCell id="CzM0XpDcJFoaD7P1eEA3-40" value="Order" style="whiteSpace=wrap;html=1;align=center;fontFamily=Verdana;" parent="1" vertex="1">
          <mxGeometry x="-170" y="630" width="100" height="40" as="geometry" />
        </mxCell>
        <mxCell id="CzM0XpDcJFoaD7P1eEA3-79" value="" style="edgeStyle=orthogonalEdgeStyle;rounded=0;orthogonalLoop=1;jettySize=auto;html=1;startArrow=none;startFill=0;endArrow=none;endFill=0;strokeColor=default;fontFamily=Verdana;" parent="1" target="CzM0XpDcJFoaD7P1eEA3-78" edge="1">
          <mxGeometry relative="1" as="geometry">
            <mxPoint x="-170.00000000000023" y="390" as="sourcePoint" />
          </mxGeometry>
        </mxCell>
        <mxCell id="CzM0XpDcJFoaD7P1eEA3-83" value="" style="edgeStyle=orthogonalEdgeStyle;rounded=0;orthogonalLoop=1;jettySize=auto;html=1;startArrow=none;startFill=0;endArrow=none;endFill=0;strokeColor=default;fontFamily=Verdana;" parent="1" target="CzM0XpDcJFoaD7P1eEA3-82" edge="1">
          <mxGeometry relative="1" as="geometry">
            <mxPoint x="-120.00000000000023" y="415" as="sourcePoint" />
          </mxGeometry>
        </mxCell>
        <mxCell id="CzM0XpDcJFoaD7P1eEA3-42" value="User" style="whiteSpace=wrap;html=1;align=center;fontFamily=Verdana;" parent="1" vertex="1">
          <mxGeometry x="-560" y="370" width="100" height="40" as="geometry" />
        </mxCell>
        <mxCell id="CzM0XpDcJFoaD7P1eEA3-74" value="" style="edgeStyle=orthogonalEdgeStyle;rounded=0;orthogonalLoop=1;jettySize=auto;html=1;startArrow=none;startFill=0;endArrow=none;endFill=0;strokeColor=default;exitX=0;exitY=0.5;exitDx=0;exitDy=0;fontFamily=Verdana;" parent="1" source="CzM0XpDcJFoaD7P1eEA3-40" target="CzM0XpDcJFoaD7P1eEA3-73" edge="1">
          <mxGeometry relative="1" as="geometry">
            <mxPoint x="-510" y="630" as="sourcePoint" />
          </mxGeometry>
        </mxCell>
        <mxCell id="CzM0XpDcJFoaD7P1eEA3-44" value="Audit" style="whiteSpace=wrap;html=1;align=center;fontFamily=Verdana;" parent="1" vertex="1">
          <mxGeometry x="-429" y="823" width="100" height="40" as="geometry" />
        </mxCell>
        <mxCell id="CzM0XpDcJFoaD7P1eEA3-45" value="Employee" style="whiteSpace=wrap;html=1;align=center;fontFamily=Verdana;" parent="1" vertex="1">
          <mxGeometry x="420" y="823" width="100" height="40" as="geometry" />
        </mxCell>
        <mxCell id="CzM0XpDcJFoaD7P1eEA3-52" value="" style="edgeStyle=orthogonalEdgeStyle;rounded=0;orthogonalLoop=1;jettySize=auto;html=1;startArrow=none;startFill=0;endArrow=none;endFill=0;strokeColor=default;fontFamily=Verdana;" parent="1" source="CzM0XpDcJFoaD7P1eEA3-50" target="CzM0XpDcJFoaD7P1eEA3-23" edge="1">
          <mxGeometry relative="1" as="geometry" />
        </mxCell>
        <mxCell id="CzM0XpDcJFoaD7P1eEA3-50" value="Includes" style="rhombus;whiteSpace=wrap;html=1;fontFamily=Verdana;" parent="1" vertex="1">
          <mxGeometry x="370" y="620" width="80" height="60" as="geometry" />
        </mxCell>
        <mxCell id="CzM0XpDcJFoaD7P1eEA3-55" value="" style="edgeStyle=orthogonalEdgeStyle;rounded=0;orthogonalLoop=1;jettySize=auto;html=1;startArrow=none;startFill=0;endArrow=none;endFill=0;strokeColor=default;fontFamily=Verdana;" parent="1" source="CzM0XpDcJFoaD7P1eEA3-53" target="CzM0XpDcJFoaD7P1eEA3-28" edge="1">
          <mxGeometry relative="1" as="geometry" />
        </mxCell>
        <mxCell id="CzM0XpDcJFoaD7P1eEA3-53" value="Offers" style="rhombus;whiteSpace=wrap;html=1;fontFamily=Verdana;" parent="1" vertex="1">
          <mxGeometry x="150" y="760" width="110" height="60" as="geometry" />
        </mxCell>
        <mxCell id="CzM0XpDcJFoaD7P1eEA3-58" value="" style="edgeStyle=orthogonalEdgeStyle;rounded=0;orthogonalLoop=1;jettySize=auto;html=1;startArrow=none;startFill=0;endArrow=none;endFill=0;strokeColor=default;" parent="1" source="CzM0XpDcJFoaD7P1eEA3-57" target="CzM0XpDcJFoaD7P1eEA3-29" edge="1">
          <mxGeometry relative="1" as="geometry" />
        </mxCell>
        <mxCell id="CzM0XpDcJFoaD7P1eEA3-57" value="Provides" style="rhombus;whiteSpace=wrap;html=1;" parent="1" vertex="1">
          <mxGeometry x="225" y="870" width="80" height="60" as="geometry" />
        </mxCell>
        <mxCell id="CzM0XpDcJFoaD7P1eEA3-61" value="" style="edgeStyle=orthogonalEdgeStyle;rounded=0;orthogonalLoop=1;jettySize=auto;html=1;startArrow=none;startFill=0;endArrow=none;endFill=0;strokeColor=default;fontFamily=Verdana;entryX=0.838;entryY=1.009;entryDx=0;entryDy=0;entryPerimeter=0;" parent="1" source="CzM0XpDcJFoaD7P1eEA3-59" target="CzM0XpDcJFoaD7P1eEA3-40" edge="1">
          <mxGeometry relative="1" as="geometry">
            <mxPoint x="-80" y="680" as="targetPoint" />
            <Array as="points" />
          </mxGeometry>
        </mxCell>
        <mxCell id="CzM0XpDcJFoaD7P1eEA3-59" value="Comprehends" style="rhombus;whiteSpace=wrap;html=1;fontFamily=Verdana;" parent="1" vertex="1">
          <mxGeometry x="-142.5" y="760" width="112.5" height="60" as="geometry" />
        </mxCell>
        <mxCell id="CzM0XpDcJFoaD7P1eEA3-62" value="Lasts" style="rhombus;whiteSpace=wrap;html=1;" parent="1" vertex="1">
          <mxGeometry x="-185" y="870" width="80" height="60" as="geometry" />
        </mxCell>
        <mxCell id="CzM0XpDcJFoaD7P1eEA3-66" value="" style="edgeStyle=orthogonalEdgeStyle;rounded=0;orthogonalLoop=1;jettySize=auto;html=1;startArrow=none;startFill=0;endArrow=none;endFill=0;strokeColor=default;exitX=0.25;exitY=1;exitDx=0;exitDy=0;entryX=0.5;entryY=0;entryDx=0;entryDy=0;fontFamily=Verdana;" parent="1" source="CzM0XpDcJFoaD7P1eEA3-40" target="CzM0XpDcJFoaD7P1eEA3-62" edge="1">
          <mxGeometry relative="1" as="geometry">
            <mxPoint x="-120.37" y="670" as="sourcePoint" />
            <mxPoint x="-80" y="830" as="targetPoint" />
          </mxGeometry>
        </mxCell>
        <mxCell id="CzM0XpDcJFoaD7P1eEA3-69" value="" style="edgeStyle=orthogonalEdgeStyle;rounded=0;orthogonalLoop=1;jettySize=auto;html=1;startArrow=none;startFill=0;endArrow=none;endFill=0;strokeColor=default;fontFamily=Verdana;" parent="1" source="CzM0XpDcJFoaD7P1eEA3-67" target="CzM0XpDcJFoaD7P1eEA3-40" edge="1">
          <mxGeometry relative="1" as="geometry" />
        </mxCell>
        <mxCell id="CzM0XpDcJFoaD7P1eEA3-67" value="Comprises" style="rhombus;whiteSpace=wrap;html=1;fontFamily=Verdana;" parent="1" vertex="1">
          <mxGeometry x="10" y="620" width="100" height="60" as="geometry" />
        </mxCell>
        <mxCell id="CzM0XpDcJFoaD7P1eEA3-75" value="" style="edgeStyle=orthogonalEdgeStyle;rounded=0;orthogonalLoop=1;jettySize=auto;html=1;startArrow=none;startFill=0;endArrow=none;endFill=0;strokeColor=default;fontFamily=Verdana;" parent="1" source="CzM0XpDcJFoaD7P1eEA3-73" target="CzM0XpDcJFoaD7P1eEA3-42" edge="1">
          <mxGeometry relative="1" as="geometry" />
        </mxCell>
        <mxCell id="CzM0XpDcJFoaD7P1eEA3-73" value="Places" style="rhombus;whiteSpace=wrap;html=1;fontFamily=Verdana;" parent="1" vertex="1">
          <mxGeometry x="-550" y="620" width="80" height="60" as="geometry" />
        </mxCell>
        <mxCell id="CzM0XpDcJFoaD7P1eEA3-81" value="" style="edgeStyle=orthogonalEdgeStyle;rounded=0;orthogonalLoop=1;jettySize=auto;html=1;startArrow=none;startFill=0;endArrow=none;endFill=0;strokeColor=default;entryX=1;entryY=0.5;entryDx=0;entryDy=0;fontFamily=Verdana;" parent="1" source="CzM0XpDcJFoaD7P1eEA3-78" target="CzM0XpDcJFoaD7P1eEA3-42" edge="1">
          <mxGeometry relative="1" as="geometry">
            <mxPoint x="-430" y="380" as="targetPoint" />
          </mxGeometry>
        </mxCell>
        <mxCell id="CzM0XpDcJFoaD7P1eEA3-78" value="Owns" style="rhombus;whiteSpace=wrap;html=1;fontFamily=Verdana;" parent="1" vertex="1">
          <mxGeometry x="-360" y="360" width="80" height="60" as="geometry" />
        </mxCell>
        <mxCell id="CzM0XpDcJFoaD7P1eEA3-84" value="" style="edgeStyle=orthogonalEdgeStyle;rounded=0;orthogonalLoop=1;jettySize=auto;html=1;startArrow=none;startFill=0;endArrow=none;endFill=0;strokeColor=default;fontFamily=Verdana;" parent="1" source="CzM0XpDcJFoaD7P1eEA3-82" target="CzM0XpDcJFoaD7P1eEA3-40" edge="1">
          <mxGeometry relative="1" as="geometry" />
        </mxCell>
        <mxCell id="CzM0XpDcJFoaD7P1eEA3-82" value="Schedules" style="rhombus;whiteSpace=wrap;html=1;fontFamily=Verdana;" parent="1" vertex="1">
          <mxGeometry x="-170" y="490" width="100" height="60" as="geometry" />
        </mxCell>
        <mxCell id="c41p8q7sOi3APmtSQqrQ-1" value="" style="endArrow=oval;html=1;rounded=0;startArrow=none;startFill=0;endFill=1;fontFamily=Verdana;" parent="1" edge="1">
          <mxGeometry width="50" height="50" relative="1" as="geometry">
            <mxPoint x="205" y="630" as="sourcePoint" />
            <mxPoint x="205" y="600" as="targetPoint" />
          </mxGeometry>
        </mxCell>
        <mxCell id="c41p8q7sOi3APmtSQqrQ-2" value="" style="endArrow=oval;html=1;rounded=0;startArrow=none;startFill=0;endFill=0;fontFamily=Verdana;" parent="1" edge="1">
          <mxGeometry width="50" height="50" relative="1" as="geometry">
            <mxPoint x="265" y="630" as="sourcePoint" />
            <mxPoint x="265" y="600" as="targetPoint" />
          </mxGeometry>
        </mxCell>
        <mxCell id="c41p8q7sOi3APmtSQqrQ-3" value="ID" style="text;html=1;align=center;verticalAlign=middle;resizable=0;points=[];autosize=1;strokeColor=none;fillColor=none;fontFamily=Verdana;" parent="1" vertex="1">
          <mxGeometry x="190" y="578" width="30" height="20" as="geometry" />
        </mxCell>
        <mxCell id="c41p8q7sOi3APmtSQqrQ-4" value="Name" style="text;html=1;align=center;verticalAlign=middle;resizable=0;points=[];autosize=1;strokeColor=none;fillColor=none;fontFamily=Verdana;" parent="1" vertex="1">
          <mxGeometry x="240" y="578" width="50" height="20" as="geometry" />
        </mxCell>
        <mxCell id="c41p8q7sOi3APmtSQqrQ-5" value="1" style="text;html=1;align=center;verticalAlign=middle;resizable=0;points=[];autosize=1;strokeColor=none;fillColor=none;fontFamily=Verdana;" parent="1" vertex="1">
          <mxGeometry x="289" y="630" width="20" height="20" as="geometry" />
        </mxCell>
        <mxCell id="c41p8q7sOi3APmtSQqrQ-6" value="N" style="text;html=1;align=center;verticalAlign=middle;resizable=0;points=[];autosize=1;strokeColor=none;fillColor=none;fontFamily=Verdana;" parent="1" vertex="1">
          <mxGeometry x="355" y="630" width="20" height="20" as="geometry" />
        </mxCell>
        <mxCell id="c41p8q7sOi3APmtSQqrQ-7" value="" style="endArrow=oval;html=1;rounded=0;startArrow=none;startFill=0;endFill=0;fontFamily=Verdana;" parent="1" edge="1">
          <mxGeometry width="50" height="50" relative="1" as="geometry">
            <mxPoint x="540.5" y="367" as="sourcePoint" />
            <mxPoint x="540.5" y="352" as="targetPoint" />
          </mxGeometry>
        </mxCell>
        <mxCell id="c41p8q7sOi3APmtSQqrQ-8" value="" style="endArrow=oval;html=1;rounded=0;startArrow=none;startFill=0;endFill=0;fontFamily=Verdana;" parent="1" edge="1">
          <mxGeometry width="50" height="50" relative="1" as="geometry">
            <mxPoint x="600.5" y="367" as="sourcePoint" />
            <mxPoint x="600.5" y="352" as="targetPoint" />
          </mxGeometry>
        </mxCell>
        <mxCell id="c41p8q7sOi3APmtSQqrQ-9" value="Minutes_N" style="text;html=1;align=center;verticalAlign=middle;resizable=0;points=[];autosize=1;strokeColor=none;fillColor=none;fontFamily=Verdana;" parent="1" vertex="1">
          <mxGeometry x="500.5" y="328" width="80" height="20" as="geometry" />
        </mxCell>
        <mxCell id="c41p8q7sOi3APmtSQqrQ-10" value="SMS_N" style="text;html=1;align=center;verticalAlign=middle;resizable=0;points=[];autosize=1;strokeColor=none;fillColor=none;" parent="1" vertex="1">
          <mxGeometry x="575.5" y="328" width="50" height="20" as="geometry" />
        </mxCell>
        <mxCell id="c41p8q7sOi3APmtSQqrQ-13" value="" style="endArrow=oval;html=1;rounded=0;startArrow=none;startFill=0;endFill=0;fontFamily=Verdana;" parent="1" edge="1">
          <mxGeometry width="50" height="50" relative="1" as="geometry">
            <mxPoint x="530.5" y="407" as="sourcePoint" />
            <mxPoint x="530.5" y="429" as="targetPoint" />
          </mxGeometry>
        </mxCell>
        <mxCell id="c41p8q7sOi3APmtSQqrQ-14" value="Minutes_Fee" style="text;html=1;align=center;verticalAlign=middle;resizable=0;points=[];autosize=1;strokeColor=none;fillColor=none;fontFamily=Verdana;" parent="1" vertex="1">
          <mxGeometry x="481.5" y="432" width="90" height="20" as="geometry" />
        </mxCell>
        <mxCell id="c41p8q7sOi3APmtSQqrQ-15" value="SMS_Fee" style="text;html=1;align=center;verticalAlign=middle;resizable=0;points=[];autosize=1;strokeColor=none;fillColor=none;" parent="1" vertex="1">
          <mxGeometry x="575.5" y="432" width="70" height="20" as="geometry" />
        </mxCell>
        <mxCell id="c41p8q7sOi3APmtSQqrQ-16" value="Internet" style="whiteSpace=wrap;html=1;align=center;" parent="1" vertex="1">
          <mxGeometry x="720.5" y="367" width="100" height="40" as="geometry" />
        </mxCell>
        <mxCell id="c41p8q7sOi3APmtSQqrQ-18" value="" style="endArrow=oval;html=1;rounded=0;startArrow=none;startFill=0;endFill=0;" parent="1" edge="1">
          <mxGeometry width="50" height="50" relative="1" as="geometry">
            <mxPoint x="745.5" y="367" as="sourcePoint" />
            <mxPoint x="745.5" y="352" as="targetPoint" />
          </mxGeometry>
        </mxCell>
        <mxCell id="c41p8q7sOi3APmtSQqrQ-19" value="" style="endArrow=oval;html=1;rounded=0;startArrow=none;startFill=0;endFill=0;" parent="1" edge="1">
          <mxGeometry width="50" height="50" relative="1" as="geometry">
            <mxPoint x="805.5" y="367" as="sourcePoint" />
            <mxPoint x="805.5" y="352" as="targetPoint" />
          </mxGeometry>
        </mxCell>
        <mxCell id="c41p8q7sOi3APmtSQqrQ-20" value="GB_N" style="text;html=1;align=center;verticalAlign=middle;resizable=0;points=[];autosize=1;strokeColor=none;fillColor=none;" parent="1" vertex="1">
          <mxGeometry x="720.5" y="328" width="50" height="20" as="geometry" />
        </mxCell>
        <mxCell id="c41p8q7sOi3APmtSQqrQ-21" value="GB_Fee" style="text;html=1;align=center;verticalAlign=middle;resizable=0;points=[];autosize=1;strokeColor=none;fillColor=none;" parent="1" vertex="1">
          <mxGeometry x="775.5" y="328" width="60" height="20" as="geometry" />
        </mxCell>
        <mxCell id="c41p8q7sOi3APmtSQqrQ-41" value="" style="endArrow=oval;html=1;rounded=0;startArrow=none;startFill=0;endFill=1;exitX=0.75;exitY=1;exitDx=0;exitDy=0;fontFamily=Verdana;" parent="1" edge="1">
          <mxGeometry width="50" height="50" relative="1" as="geometry">
            <mxPoint x="570.5" y="670" as="sourcePoint" />
            <mxPoint x="570.5" y="700" as="targetPoint" />
            <Array as="points" />
          </mxGeometry>
        </mxCell>
        <mxCell id="c41p8q7sOi3APmtSQqrQ-42" value="Service" style="rounded=0;whiteSpace=wrap;html=1;labelBorderColor=none;" parent="1" vertex="1">
          <mxGeometry x="520" y="630" width="100" height="40" as="geometry" />
        </mxCell>
        <mxCell id="c41p8q7sOi3APmtSQqrQ-43" value="1" style="text;html=1;align=center;verticalAlign=middle;resizable=0;points=[];autosize=1;strokeColor=none;fillColor=none;fontFamily=Verdana;" parent="1" vertex="1">
          <mxGeometry x="501" y="630" width="20" height="20" as="geometry" />
        </mxCell>
        <mxCell id="c41p8q7sOi3APmtSQqrQ-45" value="1" style="text;html=1;align=center;verticalAlign=middle;resizable=0;points=[];autosize=1;strokeColor=none;fillColor=none;fontFamily=Verdana;" parent="1" vertex="1">
          <mxGeometry x="443" y="630" width="20" height="20" as="geometry" />
        </mxCell>
        <mxCell id="c41p8q7sOi3APmtSQqrQ-46" value="ID" style="text;html=1;align=center;verticalAlign=middle;resizable=0;points=[];autosize=1;strokeColor=none;fillColor=none;fontFamily=Verdana;" parent="1" vertex="1">
          <mxGeometry x="555.5" y="703" width="30" height="20" as="geometry" />
        </mxCell>
        <mxCell id="c41p8q7sOi3APmtSQqrQ-47" value="1" style="text;html=1;align=center;verticalAlign=middle;resizable=0;points=[];autosize=1;strokeColor=none;fillColor=none;fontFamily=Verdana;" parent="1" vertex="1">
          <mxGeometry x="265" y="669" width="20" height="20" as="geometry" />
        </mxCell>
        <mxCell id="c41p8q7sOi3APmtSQqrQ-48" value="3" style="text;html=1;align=center;verticalAlign=middle;resizable=0;points=[];autosize=1;strokeColor=none;fillColor=none;fontFamily=Verdana;" parent="1" vertex="1">
          <mxGeometry x="265" y="852" width="20" height="20" as="geometry" />
        </mxCell>
        <mxCell id="c41p8q7sOi3APmtSQqrQ-49" value="" style="endArrow=oval;html=1;rounded=0;startArrow=none;startFill=0;endFill=0;exitX=0.75;exitY=1;exitDx=0;exitDy=0;" parent="1" edge="1">
          <mxGeometry width="50" height="50" relative="1" as="geometry">
            <mxPoint x="100" y="920" as="sourcePoint" />
            <mxPoint x="100" y="940" as="targetPoint" />
          </mxGeometry>
        </mxCell>
        <mxCell id="c41p8q7sOi3APmtSQqrQ-50" value="Months" style="text;html=1;align=center;verticalAlign=middle;resizable=0;points=[];autosize=1;strokeColor=none;fillColor=none;" parent="1" vertex="1">
          <mxGeometry x="-5" y="940" width="50" height="20" as="geometry" />
        </mxCell>
        <mxCell id="c41p8q7sOi3APmtSQqrQ-51" value="" style="endArrow=oval;html=1;rounded=0;startArrow=none;startFill=0;endFill=0;exitX=0.75;exitY=1;exitDx=0;exitDy=0;" parent="1" edge="1">
          <mxGeometry width="50" height="50" relative="1" as="geometry">
            <mxPoint x="19.83" y="920" as="sourcePoint" />
            <mxPoint x="20" y="940" as="targetPoint" />
          </mxGeometry>
        </mxCell>
        <mxCell id="c41p8q7sOi3APmtSQqrQ-52" value="Monthly_Fee" style="text;html=1;align=center;verticalAlign=middle;resizable=0;points=[];autosize=1;strokeColor=none;fillColor=none;" parent="1" vertex="1">
          <mxGeometry x="60" y="940" width="80" height="20" as="geometry" />
        </mxCell>
        <mxCell id="c41p8q7sOi3APmtSQqrQ-54" value="1" style="text;html=1;align=center;verticalAlign=middle;resizable=0;points=[];autosize=1;strokeColor=none;fillColor=none;" parent="1" vertex="1">
          <mxGeometry x="211" y="880" width="20" height="20" as="geometry" />
        </mxCell>
        <mxCell id="c41p8q7sOi3APmtSQqrQ-55" value="1" style="text;html=1;align=center;verticalAlign=middle;resizable=0;points=[];autosize=1;strokeColor=none;fillColor=none;fontFamily=Verdana;" parent="1" vertex="1">
          <mxGeometry x="-166" y="670" width="20" height="20" as="geometry" />
        </mxCell>
        <mxCell id="c41p8q7sOi3APmtSQqrQ-56" value="1" style="text;html=1;align=center;verticalAlign=middle;resizable=0;points=[];autosize=1;strokeColor=none;fillColor=none;fontFamily=Verdana;" parent="1" vertex="1">
          <mxGeometry x="-166" y="854" width="20" height="20" as="geometry" />
        </mxCell>
        <mxCell id="c41p8q7sOi3APmtSQqrQ-57" value="1" style="text;html=1;align=center;verticalAlign=middle;resizable=0;points=[];autosize=1;strokeColor=none;fillColor=none;" parent="1" vertex="1">
          <mxGeometry x="-10" y="880" width="20" height="20" as="geometry" />
        </mxCell>
        <mxCell id="c41p8q7sOi3APmtSQqrQ-59" value="N" style="text;html=1;align=center;verticalAlign=middle;resizable=0;points=[];autosize=1;strokeColor=none;fillColor=none;" parent="1" vertex="1">
          <mxGeometry x="-111" y="880" width="20" height="20" as="geometry" />
        </mxCell>
        <mxCell id="c41p8q7sOi3APmtSQqrQ-60" value="0" style="text;html=1;align=center;verticalAlign=middle;resizable=0;points=[];autosize=1;strokeColor=none;fillColor=none;fontFamily=Verdana;" parent="1" vertex="1">
          <mxGeometry x="185" y="669" width="20" height="20" as="geometry" />
        </mxCell>
        <mxCell id="c41p8q7sOi3APmtSQqrQ-61" value="N" style="text;html=1;align=center;verticalAlign=middle;resizable=0;points=[];autosize=1;strokeColor=none;fillColor=none;fontFamily=Verdana;" parent="1" vertex="1">
          <mxGeometry x="185" y="743" width="20" height="20" as="geometry" />
        </mxCell>
        <mxCell id="c41p8q7sOi3APmtSQqrQ-62" value="0" style="text;html=1;align=center;verticalAlign=middle;resizable=0;points=[];autosize=1;strokeColor=none;fillColor=none;fontFamily=Verdana;" parent="1" vertex="1">
          <mxGeometry x="108" y="770" width="20" height="20" as="geometry" />
        </mxCell>
        <mxCell id="c41p8q7sOi3APmtSQqrQ-63" value="N" style="text;html=1;align=center;verticalAlign=middle;resizable=0;points=[];autosize=1;strokeColor=none;fillColor=none;fontFamily=Verdana;" parent="1" vertex="1">
          <mxGeometry x="137" y="770" width="20" height="20" as="geometry" />
        </mxCell>
        <mxCell id="c41p8q7sOi3APmtSQqrQ-64" value="N" style="text;html=1;align=center;verticalAlign=middle;resizable=0;points=[];autosize=1;strokeColor=none;fillColor=none;fontFamily=Verdana;" parent="1" vertex="1">
          <mxGeometry x="-89" y="743" width="20" height="20" as="geometry" />
        </mxCell>
        <mxCell id="c41p8q7sOi3APmtSQqrQ-65" value="0" style="text;html=1;align=center;verticalAlign=middle;resizable=0;points=[];autosize=1;strokeColor=none;fillColor=none;fontFamily=Verdana;" parent="1" vertex="1">
          <mxGeometry x="-9" y="770" width="20" height="20" as="geometry" />
        </mxCell>
        <mxCell id="c41p8q7sOi3APmtSQqrQ-66" value="N" style="text;html=1;align=center;verticalAlign=middle;resizable=0;points=[];autosize=1;strokeColor=none;fillColor=none;fontFamily=Verdana;" parent="1" vertex="1">
          <mxGeometry x="-38" y="770" width="20" height="20" as="geometry" />
        </mxCell>
        <mxCell id="c41p8q7sOi3APmtSQqrQ-67" value="0" style="text;html=1;align=center;verticalAlign=middle;resizable=0;points=[];autosize=1;strokeColor=none;fillColor=none;fontFamily=Verdana;" parent="1" vertex="1">
          <mxGeometry x="-87" y="669" width="20" height="20" as="geometry" />
        </mxCell>
        <mxCell id="c41p8q7sOi3APmtSQqrQ-69" value="" style="endArrow=oval;html=1;rounded=0;startArrow=none;startFill=0;endFill=1;fontFamily=Verdana;" parent="1" edge="1">
          <mxGeometry width="50" height="50" relative="1" as="geometry">
            <mxPoint x="60.00000000000023" y="880" as="sourcePoint" />
            <mxPoint x="60" y="860" as="targetPoint" />
          </mxGeometry>
        </mxCell>
        <mxCell id="c41p8q7sOi3APmtSQqrQ-70" value="ID" style="text;html=1;align=center;verticalAlign=middle;resizable=0;points=[];autosize=1;strokeColor=none;fillColor=none;fontFamily=Verdana;" parent="1" vertex="1">
          <mxGeometry x="45" y="838" width="30" height="20" as="geometry" />
        </mxCell>
        <mxCell id="c41p8q7sOi3APmtSQqrQ-71" value="" style="endArrow=oval;html=1;rounded=0;startArrow=none;startFill=0;endFill=0;exitX=0.75;exitY=1;exitDx=0;exitDy=0;fontFamily=Verdana;" parent="1" edge="1">
          <mxGeometry width="50" height="50" relative="1" as="geometry">
            <mxPoint x="100" y="810" as="sourcePoint" />
            <mxPoint x="100" y="820" as="targetPoint" />
          </mxGeometry>
        </mxCell>
        <mxCell id="c41p8q7sOi3APmtSQqrQ-72" value="Monthly_Fee" style="text;html=1;align=center;verticalAlign=middle;resizable=0;points=[];autosize=1;strokeColor=none;fillColor=none;fontFamily=Verdana;" parent="1" vertex="1">
          <mxGeometry x="55" y="821" width="90" height="20" as="geometry" />
        </mxCell>
        <mxCell id="c41p8q7sOi3APmtSQqrQ-73" value="" style="endArrow=oval;html=1;rounded=0;startArrow=none;startFill=0;endFill=0;exitX=0.75;exitY=1;exitDx=0;exitDy=0;fontFamily=Verdana;" parent="1" edge="1">
          <mxGeometry width="50" height="50" relative="1" as="geometry">
            <mxPoint x="20" y="810" as="sourcePoint" />
            <mxPoint x="20" y="820" as="targetPoint" />
          </mxGeometry>
        </mxCell>
        <mxCell id="c41p8q7sOi3APmtSQqrQ-74" value="Name" style="text;html=1;align=center;verticalAlign=middle;resizable=0;points=[];autosize=1;strokeColor=none;fillColor=none;fontFamily=Verdana;" parent="1" vertex="1">
          <mxGeometry x="-5" y="821" width="50" height="20" as="geometry" />
        </mxCell>
        <mxCell id="c41p8q7sOi3APmtSQqrQ-78" value="" style="endArrow=oval;html=1;rounded=0;startArrow=none;startFill=0;endFill=1;fontFamily=Verdana;" parent="1" edge="1">
          <mxGeometry width="50" height="50" relative="1" as="geometry">
            <mxPoint x="60.00000000000023" y="770" as="sourcePoint" />
            <mxPoint x="60" y="750" as="targetPoint" />
          </mxGeometry>
        </mxCell>
        <mxCell id="c41p8q7sOi3APmtSQqrQ-79" value="ID" style="text;html=1;align=center;verticalAlign=middle;resizable=0;points=[];autosize=1;strokeColor=none;fillColor=none;fontFamily=Verdana;" parent="1" vertex="1">
          <mxGeometry x="45" y="728" width="30" height="20" as="geometry" />
        </mxCell>
        <mxCell id="c41p8q7sOi3APmtSQqrQ-80" value="1" style="text;html=1;align=center;verticalAlign=middle;resizable=0;points=[];autosize=1;strokeColor=none;fillColor=none;fontFamily=Verdana;" parent="1" vertex="1">
          <mxGeometry x="-71" y="630" width="20" height="20" as="geometry" />
        </mxCell>
        <mxCell id="c41p8q7sOi3APmtSQqrQ-81" value="1" style="text;html=1;align=center;verticalAlign=middle;resizable=0;points=[];autosize=1;strokeColor=none;fillColor=none;fontFamily=Verdana;" parent="1" vertex="1">
          <mxGeometry x="-4" y="630" width="20" height="20" as="geometry" />
        </mxCell>
        <mxCell id="c41p8q7sOi3APmtSQqrQ-82" value="0" style="text;html=1;align=center;verticalAlign=middle;resizable=0;points=[];autosize=1;strokeColor=none;fillColor=none;fontFamily=Verdana;" parent="1" vertex="1">
          <mxGeometry x="170" y="630" width="20" height="20" as="geometry" />
        </mxCell>
        <mxCell id="c41p8q7sOi3APmtSQqrQ-83" value="N" style="text;html=1;align=center;verticalAlign=middle;resizable=0;points=[];autosize=1;strokeColor=none;fillColor=none;fontFamily=Verdana;" parent="1" vertex="1">
          <mxGeometry x="105" y="630" width="20" height="20" as="geometry" />
        </mxCell>
        <mxCell id="c41p8q7sOi3APmtSQqrQ-84" value="" style="endArrow=oval;html=1;rounded=0;startArrow=none;startFill=0;endFill=0;fontFamily=Verdana;" parent="1" edge="1">
          <mxGeometry width="50" height="50" relative="1" as="geometry">
            <mxPoint x="-80" y="630" as="sourcePoint" />
            <mxPoint x="-80" y="611" as="targetPoint" />
          </mxGeometry>
        </mxCell>
        <mxCell id="c41p8q7sOi3APmtSQqrQ-85" value="Activation_Date" style="text;html=1;align=center;verticalAlign=middle;resizable=0;points=[];autosize=1;strokeColor=none;fillColor=none;fontFamily=Verdana;" parent="1" vertex="1">
          <mxGeometry x="-126" y="587" width="120" height="20" as="geometry" />
        </mxCell>
        <mxCell id="c41p8q7sOi3APmtSQqrQ-88" value="" style="endArrow=oval;html=1;rounded=0;startArrow=none;startFill=0;endFill=1;fontFamily=Verdana;" parent="1" edge="1">
          <mxGeometry width="50" height="50" relative="1" as="geometry">
            <mxPoint x="-160" y="630" as="sourcePoint" />
            <mxPoint x="-160" y="612" as="targetPoint" />
          </mxGeometry>
        </mxCell>
        <mxCell id="c41p8q7sOi3APmtSQqrQ-89" value="ID" style="text;html=1;align=center;verticalAlign=middle;resizable=0;points=[];autosize=1;strokeColor=none;fillColor=none;fontFamily=Verdana;" parent="1" vertex="1">
          <mxGeometry x="-175" y="589" width="30" height="20" as="geometry" />
        </mxCell>
        <mxCell id="c41p8q7sOi3APmtSQqrQ-91" value="Timestamp" style="text;html=1;align=center;verticalAlign=middle;resizable=0;points=[];autosize=1;strokeColor=none;fillColor=none;fontFamily=Verdana;" parent="1" vertex="1">
          <mxGeometry x="-59" y="656" width="90" height="20" as="geometry" />
        </mxCell>
        <mxCell id="c41p8q7sOi3APmtSQqrQ-92" value="" style="endArrow=oval;html=1;rounded=0;startArrow=none;startFill=0;endFill=0;fontFamily=Verdana;" parent="1" edge="1">
          <mxGeometry width="50" height="50" relative="1" as="geometry">
            <mxPoint x="-70" y="667" as="sourcePoint" />
            <mxPoint x="-55" y="667" as="targetPoint" />
          </mxGeometry>
        </mxCell>
        <mxCell id="c41p8q7sOi3APmtSQqrQ-93" value="Status" style="text;html=1;align=center;verticalAlign=middle;resizable=0;points=[];autosize=1;strokeColor=none;fillColor=none;fontFamily=Verdana;" parent="1" vertex="1">
          <mxGeometry x="-150" y="690" width="60" height="20" as="geometry" />
        </mxCell>
        <mxCell id="c41p8q7sOi3APmtSQqrQ-94" value="" style="endArrow=oval;html=1;rounded=0;startArrow=none;startFill=0;endFill=0;fontFamily=Verdana;" parent="1" edge="1">
          <mxGeometry width="50" height="50" relative="1" as="geometry">
            <mxPoint x="-560" y="399.96" as="sourcePoint" />
            <mxPoint x="-580" y="399.96" as="targetPoint" />
          </mxGeometry>
        </mxCell>
        <mxCell id="c41p8q7sOi3APmtSQqrQ-95" value="Insolvent" style="text;html=1;align=center;verticalAlign=middle;resizable=0;points=[];autosize=1;strokeColor=none;fillColor=none;fontFamily=Verdana;" parent="1" vertex="1">
          <mxGeometry x="-653" y="389" width="70" height="20" as="geometry" />
        </mxCell>
        <mxCell id="c41p8q7sOi3APmtSQqrQ-102" value="" style="endArrow=oval;html=1;rounded=0;startArrow=none;startFill=0;endFill=0;fontFamily=Verdana;" parent="1" edge="1">
          <mxGeometry width="50" height="50" relative="1" as="geometry">
            <mxPoint x="-120" y="670" as="sourcePoint" />
            <mxPoint x="-120" y="690" as="targetPoint" />
          </mxGeometry>
        </mxCell>
        <mxCell id="c41p8q7sOi3APmtSQqrQ-103" value="Total" style="text;html=1;align=center;verticalAlign=middle;resizable=0;points=[];autosize=1;strokeColor=none;fillColor=none;fontFamily=Verdana;" parent="1" vertex="1">
          <mxGeometry x="-231" y="655" width="50" height="20" as="geometry" />
        </mxCell>
        <mxCell id="c41p8q7sOi3APmtSQqrQ-104" value="0" style="text;html=1;align=center;verticalAlign=middle;resizable=0;points=[];autosize=1;strokeColor=none;fillColor=none;fontFamily=Verdana;" parent="1" vertex="1">
          <mxGeometry x="-120" y="611" width="20" height="20" as="geometry" />
        </mxCell>
        <mxCell id="c41p8q7sOi3APmtSQqrQ-105" value="1" style="text;html=1;align=center;verticalAlign=middle;resizable=0;points=[];autosize=1;strokeColor=none;fillColor=none;fontFamily=Verdana;" parent="1" vertex="1">
          <mxGeometry x="-120" y="546" width="20" height="20" as="geometry" />
        </mxCell>
        <mxCell id="c41p8q7sOi3APmtSQqrQ-111" value="1" style="text;html=1;align=center;verticalAlign=middle;resizable=0;points=[];autosize=1;strokeColor=none;fillColor=none;fontFamily=Verdana;" parent="1" vertex="1">
          <mxGeometry x="-120" y="472" width="20" height="20" as="geometry" />
        </mxCell>
        <mxCell id="c41p8q7sOi3APmtSQqrQ-112" value="1" style="text;html=1;align=center;verticalAlign=middle;resizable=0;points=[];autosize=1;strokeColor=none;fillColor=none;fontFamily=Verdana;" parent="1" vertex="1">
          <mxGeometry x="-120" y="414" width="20" height="20" as="geometry" />
        </mxCell>
        <mxCell id="c41p8q7sOi3APmtSQqrQ-113" value="0" style="text;html=1;align=center;verticalAlign=middle;resizable=0;points=[];autosize=1;strokeColor=none;fillColor=none;fontFamily=Verdana;" parent="1" vertex="1">
          <mxGeometry x="-530" y="409" width="20" height="20" as="geometry" />
        </mxCell>
        <mxCell id="c41p8q7sOi3APmtSQqrQ-115" value="N" style="text;html=1;align=center;verticalAlign=middle;resizable=0;points=[];autosize=1;strokeColor=none;fillColor=none;fontFamily=Verdana;" parent="1" vertex="1">
          <mxGeometry x="-530" y="602" width="20" height="20" as="geometry" />
        </mxCell>
        <mxCell id="c41p8q7sOi3APmtSQqrQ-116" value="1" style="text;html=1;align=center;verticalAlign=middle;resizable=0;points=[];autosize=1;strokeColor=none;fillColor=none;fontFamily=Verdana;" parent="1" vertex="1">
          <mxGeometry x="-475" y="630" width="20" height="20" as="geometry" />
        </mxCell>
        <mxCell id="c41p8q7sOi3APmtSQqrQ-117" value="1" style="text;html=1;align=center;verticalAlign=middle;resizable=0;points=[];autosize=1;strokeColor=none;fillColor=none;fontFamily=Verdana;" parent="1" vertex="1">
          <mxGeometry x="-189" y="630" width="20" height="20" as="geometry" />
        </mxCell>
        <mxCell id="c41p8q7sOi3APmtSQqrQ-118" value="0" style="text;html=1;align=center;verticalAlign=middle;resizable=0;points=[];autosize=1;strokeColor=none;fillColor=none;fontFamily=Verdana;" parent="1" vertex="1">
          <mxGeometry x="-461" y="370" width="20" height="20" as="geometry" />
        </mxCell>
        <mxCell id="c41p8q7sOi3APmtSQqrQ-119" value="N" style="text;html=1;align=center;verticalAlign=middle;resizable=0;points=[];autosize=1;strokeColor=none;fillColor=none;fontFamily=Verdana;" parent="1" vertex="1">
          <mxGeometry x="-375" y="370" width="20" height="20" as="geometry" />
        </mxCell>
        <mxCell id="c41p8q7sOi3APmtSQqrQ-120" value="1" style="text;html=1;align=center;verticalAlign=middle;resizable=0;points=[];autosize=1;strokeColor=none;fillColor=none;fontFamily=Verdana;" parent="1" vertex="1">
          <mxGeometry x="-189" y="370" width="20" height="20" as="geometry" />
        </mxCell>
        <mxCell id="c41p8q7sOi3APmtSQqrQ-121" value="1" style="text;html=1;align=center;verticalAlign=middle;resizable=0;points=[];autosize=1;strokeColor=none;fillColor=none;fontFamily=Verdana;" parent="1" vertex="1">
          <mxGeometry x="-286" y="370" width="20" height="20" as="geometry" />
        </mxCell>
        <mxCell id="c41p8q7sOi3APmtSQqrQ-123" value="" style="endArrow=oval;html=1;rounded=0;startArrow=none;startFill=0;endFill=0;fontFamily=Verdana;" parent="1" edge="1">
          <mxGeometry width="50" height="50" relative="1" as="geometry">
            <mxPoint x="-121.00000000000023" y="365" as="sourcePoint" />
            <mxPoint x="-121.00000000000023" y="346" as="targetPoint" />
          </mxGeometry>
        </mxCell>
        <mxCell id="c41p8q7sOi3APmtSQqrQ-124" value="Deactivation_Date" style="text;html=1;align=center;verticalAlign=middle;resizable=0;points=[];autosize=1;strokeColor=none;fillColor=none;fontFamily=Verdana;" parent="1" vertex="1">
          <mxGeometry x="-184" y="323" width="130" height="20" as="geometry" />
        </mxCell>
        <mxCell id="c41p8q7sOi3APmtSQqrQ-125" value="" style="endArrow=none;html=1;rounded=0;startArrow=oval;startFill=1;fontFamily=Verdana;" parent="1" edge="1">
          <mxGeometry width="50" height="50" relative="1" as="geometry">
            <mxPoint x="-60" y="440" as="sourcePoint" />
            <mxPoint x="-200" y="365" as="targetPoint" />
            <Array as="points">
              <mxPoint x="-200" y="440" />
            </Array>
          </mxGeometry>
        </mxCell>
        <mxCell id="c41p8q7sOi3APmtSQqrQ-126" value="Service Activation Schedule" style="shape=ext;double=1;rounded=0;whiteSpace=wrap;html=1;labelBorderColor=none;fontFamily=Verdana;" parent="1" vertex="1">
          <mxGeometry x="-170" y="365" width="100" height="50" as="geometry" />
        </mxCell>
        <mxCell id="c41p8q7sOi3APmtSQqrQ-127" value="" style="endArrow=oval;html=1;rounded=0;startArrow=none;startFill=0;endFill=0;fontFamily=Verdana;" parent="1" edge="1">
          <mxGeometry width="50" height="50" relative="1" as="geometry">
            <mxPoint x="-470" y="370" as="sourcePoint" />
            <mxPoint x="-470" y="330" as="targetPoint" />
          </mxGeometry>
        </mxCell>
        <mxCell id="c41p8q7sOi3APmtSQqrQ-128" value="Password" style="text;html=1;align=center;verticalAlign=middle;resizable=0;points=[];autosize=1;strokeColor=none;fillColor=none;fontFamily=Verdana;" parent="1" vertex="1">
          <mxGeometry x="-509" y="307" width="80" height="20" as="geometry" />
        </mxCell>
        <mxCell id="c41p8q7sOi3APmtSQqrQ-129" value="Username" style="text;html=1;align=center;verticalAlign=middle;resizable=0;points=[];autosize=1;strokeColor=none;fillColor=none;fontFamily=Verdana;" parent="1" vertex="1">
          <mxGeometry x="-550" y="328" width="80" height="20" as="geometry" />
        </mxCell>
        <mxCell id="c41p8q7sOi3APmtSQqrQ-130" value="" style="endArrow=oval;html=1;rounded=0;startArrow=none;startFill=0;endFill=0;fontFamily=Verdana;" parent="1" edge="1">
          <mxGeometry width="50" height="50" relative="1" as="geometry">
            <mxPoint x="-510.83" y="370" as="sourcePoint" />
            <mxPoint x="-511" y="350" as="targetPoint" />
          </mxGeometry>
        </mxCell>
        <mxCell id="c41p8q7sOi3APmtSQqrQ-131" value="Mail" style="text;html=1;align=center;verticalAlign=middle;resizable=0;points=[];autosize=1;strokeColor=none;fillColor=none;fontFamily=Verdana;" parent="1" vertex="1">
          <mxGeometry x="-570" y="306" width="40" height="20" as="geometry" />
        </mxCell>
        <mxCell id="c41p8q7sOi3APmtSQqrQ-132" value="" style="endArrow=oval;html=1;rounded=0;startArrow=none;startFill=0;endFill=0;fontFamily=Verdana;" parent="1" edge="1">
          <mxGeometry width="50" height="50" relative="1" as="geometry">
            <mxPoint x="-550.17" y="370" as="sourcePoint" />
            <mxPoint x="-550.17" y="330" as="targetPoint" />
          </mxGeometry>
        </mxCell>
        <mxCell id="c41p8q7sOi3APmtSQqrQ-133" value="" style="endArrow=oval;html=1;rounded=0;startArrow=none;startFill=0;endFill=1;fontFamily=Verdana;" parent="1" edge="1">
          <mxGeometry width="50" height="50" relative="1" as="geometry">
            <mxPoint x="-494.12" y="410" as="sourcePoint" />
            <mxPoint x="-493.95" y="430" as="targetPoint" />
          </mxGeometry>
        </mxCell>
        <mxCell id="c41p8q7sOi3APmtSQqrQ-134" value="ID" style="text;html=1;align=center;verticalAlign=middle;resizable=0;points=[];autosize=1;strokeColor=none;fillColor=none;fontFamily=Verdana;" parent="1" vertex="1">
          <mxGeometry x="-509" y="431" width="30" height="20" as="geometry" />
        </mxCell>
        <mxCell id="c41p8q7sOi3APmtSQqrQ-135" value="" style="endArrow=oval;html=1;rounded=0;startArrow=none;startFill=0;endFill=0;fontFamily=Verdana;" parent="1" edge="1">
          <mxGeometry width="50" height="50" relative="1" as="geometry">
            <mxPoint x="-560" y="379.92" as="sourcePoint" />
            <mxPoint x="-580" y="379.92" as="targetPoint" />
          </mxGeometry>
        </mxCell>
        <mxCell id="c41p8q7sOi3APmtSQqrQ-136" value="Failed_Payments" style="text;html=1;align=center;verticalAlign=middle;resizable=0;points=[];autosize=1;strokeColor=none;fillColor=none;fontFamily=Verdana;" parent="1" vertex="1">
          <mxGeometry x="-700" y="367" width="120" height="20" as="geometry" />
        </mxCell>
        <mxCell id="c41p8q7sOi3APmtSQqrQ-148" value="Username" style="text;html=1;align=center;verticalAlign=middle;resizable=0;points=[];autosize=1;strokeColor=none;fillColor=none;fontFamily=Verdana;" parent="1" vertex="1">
          <mxGeometry x="-419" y="780" width="80" height="20" as="geometry" />
        </mxCell>
        <mxCell id="c41p8q7sOi3APmtSQqrQ-149" value="" style="endArrow=oval;html=1;rounded=0;startArrow=none;startFill=0;endFill=0;fontFamily=Verdana;" parent="1" edge="1">
          <mxGeometry width="50" height="50" relative="1" as="geometry">
            <mxPoint x="-379" y="823" as="sourcePoint" />
            <mxPoint x="-379" y="803" as="targetPoint" />
          </mxGeometry>
        </mxCell>
        <mxCell id="c41p8q7sOi3APmtSQqrQ-150" value="UserID" style="text;html=1;align=center;verticalAlign=middle;resizable=0;points=[];autosize=1;strokeColor=none;fillColor=none;fontFamily=Verdana;" parent="1" vertex="1">
          <mxGeometry x="-449" y="760" width="60" height="20" as="geometry" />
        </mxCell>
        <mxCell id="c41p8q7sOi3APmtSQqrQ-151" value="" style="endArrow=oval;html=1;rounded=0;startArrow=none;startFill=0;endFill=0;fontFamily=Verdana;" parent="1" edge="1">
          <mxGeometry width="50" height="50" relative="1" as="geometry">
            <mxPoint x="-419" y="823" as="sourcePoint" />
            <mxPoint x="-419" y="783" as="targetPoint" />
          </mxGeometry>
        </mxCell>
        <mxCell id="c41p8q7sOi3APmtSQqrQ-153" value="" style="endArrow=oval;html=1;rounded=0;startArrow=none;startFill=0;endFill=0;fontFamily=Verdana;" parent="1" edge="1">
          <mxGeometry width="50" height="50" relative="1" as="geometry">
            <mxPoint x="-341.0000000000001" y="823" as="sourcePoint" />
            <mxPoint x="-341.0000000000001" y="783" as="targetPoint" />
          </mxGeometry>
        </mxCell>
        <mxCell id="c41p8q7sOi3APmtSQqrQ-154" value="Mail" style="text;html=1;align=center;verticalAlign=middle;resizable=0;points=[];autosize=1;strokeColor=none;fillColor=none;fontFamily=Verdana;" parent="1" vertex="1">
          <mxGeometry x="-362" y="760" width="40" height="20" as="geometry" />
        </mxCell>
        <mxCell id="c41p8q7sOi3APmtSQqrQ-155" value="" style="endArrow=oval;html=1;rounded=0;startArrow=none;startFill=0;endFill=0;fontFamily=Verdana;" parent="1" edge="1">
          <mxGeometry width="50" height="50" relative="1" as="geometry">
            <mxPoint x="-329" y="840" as="sourcePoint" />
            <mxPoint x="-309" y="840" as="targetPoint" />
          </mxGeometry>
        </mxCell>
        <mxCell id="c41p8q7sOi3APmtSQqrQ-156" value="Amount" style="text;html=1;align=center;verticalAlign=middle;resizable=0;points=[];autosize=1;strokeColor=none;fillColor=none;fontFamily=Verdana;" parent="1" vertex="1">
          <mxGeometry x="-308" y="829" width="60" height="20" as="geometry" />
        </mxCell>
        <mxCell id="c41p8q7sOi3APmtSQqrQ-157" value="" style="endArrow=oval;html=1;rounded=0;startArrow=none;startFill=0;endFill=0;fontFamily=Verdana;" parent="1" edge="1">
          <mxGeometry width="50" height="50" relative="1" as="geometry">
            <mxPoint x="-429" y="839.83" as="sourcePoint" />
            <mxPoint x="-459" y="839.83" as="targetPoint" />
          </mxGeometry>
        </mxCell>
        <mxCell id="c41p8q7sOi3APmtSQqrQ-158" value="Timestamp" style="text;html=1;align=center;verticalAlign=middle;resizable=0;points=[];autosize=1;strokeColor=none;fillColor=none;fontFamily=Verdana;" parent="1" vertex="1">
          <mxGeometry x="-545" y="828" width="90" height="20" as="geometry" />
        </mxCell>
        <mxCell id="c41p8q7sOi3APmtSQqrQ-159" value="" style="endArrow=none;html=1;rounded=0;startArrow=oval;startFill=1;fontFamily=Verdana;" parent="1" edge="1">
          <mxGeometry width="50" height="50" relative="1" as="geometry">
            <mxPoint x="-442" y="880" as="sourcePoint" />
            <mxPoint x="-402" y="810" as="targetPoint" />
            <Array as="points">
              <mxPoint x="-442" y="810" />
            </Array>
          </mxGeometry>
        </mxCell>
        <mxCell id="c41p8q7sOi3APmtSQqrQ-160" value="" style="endArrow=oval;html=1;rounded=0;startArrow=none;startFill=0;endFill=1;fontFamily=Verdana;" parent="1" edge="1">
          <mxGeometry width="50" height="50" relative="1" as="geometry">
            <mxPoint x="469.83" y="823" as="sourcePoint" />
            <mxPoint x="469.78" y="798" as="targetPoint" />
          </mxGeometry>
        </mxCell>
        <mxCell id="c41p8q7sOi3APmtSQqrQ-161" value="ID" style="text;html=1;align=center;verticalAlign=middle;resizable=0;points=[];autosize=1;strokeColor=none;fillColor=none;fontFamily=Verdana;" parent="1" vertex="1">
          <mxGeometry x="455" y="773" width="30" height="20" as="geometry" />
        </mxCell>
        <mxCell id="c41p8q7sOi3APmtSQqrQ-162" value="" style="endArrow=oval;html=1;rounded=0;startArrow=none;startFill=0;endFill=0;exitX=0.75;exitY=1;exitDx=0;exitDy=0;fontFamily=Verdana;" parent="1" edge="1">
          <mxGeometry width="50" height="50" relative="1" as="geometry">
            <mxPoint x="419.56" y="843" as="sourcePoint" />
            <mxPoint x="400" y="843" as="targetPoint" />
          </mxGeometry>
        </mxCell>
        <mxCell id="c41p8q7sOi3APmtSQqrQ-163" value="Username" style="text;html=1;align=center;verticalAlign=middle;resizable=0;points=[];autosize=1;strokeColor=none;fillColor=none;" parent="1" vertex="1">
          <mxGeometry x="540" y="832" width="70" height="20" as="geometry" />
        </mxCell>
        <mxCell id="c41p8q7sOi3APmtSQqrQ-165" value="" style="endArrow=oval;html=1;rounded=0;startArrow=none;startFill=0;endFill=0;fontFamily=Verdana;" parent="1" edge="1">
          <mxGeometry width="50" height="50" relative="1" as="geometry">
            <mxPoint x="520" y="843" as="sourcePoint" />
            <mxPoint x="540" y="843" as="targetPoint" />
          </mxGeometry>
        </mxCell>
        <mxCell id="c41p8q7sOi3APmtSQqrQ-166" value="Password" style="text;html=1;align=center;verticalAlign=middle;resizable=0;points=[];autosize=1;strokeColor=none;fillColor=none;fontFamily=Verdana;" parent="1" vertex="1">
          <mxGeometry x="323" y="832" width="80" height="20" as="geometry" />
        </mxCell>
        <mxCell id="c41p8q7sOi3APmtSQqrQ-167" value="Fixed Phone" style="whiteSpace=wrap;html=1;align=center;fontFamily=Verdana;" parent="1" vertex="1">
          <mxGeometry x="320" y="367" width="100" height="40" as="geometry" />
        </mxCell>
        <mxCell id="c41p8q7sOi3APmtSQqrQ-169" value="" style="endArrow=oval;html=1;rounded=0;startArrow=none;startFill=0;endFill=0;" parent="1" edge="1">
          <mxGeometry width="50" height="50" relative="1" as="geometry">
            <mxPoint x="610.5" y="407" as="sourcePoint" />
            <mxPoint x="610.5" y="429" as="targetPoint" />
          </mxGeometry>
        </mxCell>
        <mxCell id="c41p8q7sOi3APmtSQqrQ-170" value="" style="endArrow=oval;html=1;rounded=0;startArrow=none;startFill=0;endFill=0;fontFamily=Verdana;" parent="1" edge="1">
          <mxGeometry width="50" height="50" relative="1" as="geometry">
            <mxPoint x="-170" y="666.94" as="sourcePoint" />
            <mxPoint x="-185" y="666.94" as="targetPoint" />
          </mxGeometry>
        </mxCell>
        <mxCell id="c41p8q7sOi3APmtSQqrQ-171" value="" style="endArrow=block;html=1;rounded=0;endFill=0;entryX=0.5;entryY=0;entryDx=0;entryDy=0;exitX=0.5;exitY=1;exitDx=0;exitDy=0;fontFamily=Verdana;" parent="1" source="CzM0XpDcJFoaD7P1eEA3-2" target="c41p8q7sOi3APmtSQqrQ-42" edge="1">
          <mxGeometry width="50" height="50" relative="1" as="geometry">
            <mxPoint x="590" y="480" as="sourcePoint" />
            <mxPoint x="600" y="437" as="targetPoint" />
          </mxGeometry>
        </mxCell>
        <mxCell id="c41p8q7sOi3APmtSQqrQ-173" value="" style="endArrow=block;html=1;rounded=0;endFill=0;exitX=0.5;exitY=1;exitDx=0;exitDy=0;entryX=0.25;entryY=0;entryDx=0;entryDy=0;fontFamily=Verdana;" parent="1" source="c41p8q7sOi3APmtSQqrQ-167" target="c41p8q7sOi3APmtSQqrQ-42" edge="1">
          <mxGeometry width="50" height="50" relative="1" as="geometry">
            <mxPoint x="410" y="460" as="sourcePoint" />
            <mxPoint x="540" y="520" as="targetPoint" />
            <Array as="points">
              <mxPoint x="370" y="520" />
              <mxPoint x="545" y="520" />
            </Array>
          </mxGeometry>
        </mxCell>
        <mxCell id="c41p8q7sOi3APmtSQqrQ-174" value="" style="endArrow=block;html=1;rounded=0;endFill=0;exitX=0.5;exitY=1;exitDx=0;exitDy=0;entryX=0.75;entryY=0;entryDx=0;entryDy=0;" parent="1" source="c41p8q7sOi3APmtSQqrQ-16" target="c41p8q7sOi3APmtSQqrQ-42" edge="1">
          <mxGeometry width="50" height="50" relative="1" as="geometry">
            <mxPoint x="760.5" y="427" as="sourcePoint" />
            <mxPoint x="620" y="610" as="targetPoint" />
            <Array as="points">
              <mxPoint x="770" y="520" />
              <mxPoint x="595" y="520" />
            </Array>
          </mxGeometry>
        </mxCell>
        <mxCell id="c41p8q7sOi3APmtSQqrQ-175" value="" style="endArrow=block;html=1;rounded=0;endFill=0;entryX=1;entryY=0.25;entryDx=0;entryDy=0;exitX=0;exitY=0.5;exitDx=0;exitDy=0;" parent="1" source="CzM0XpDcJFoaD7P1eEA3-4" target="c41p8q7sOi3APmtSQqrQ-16" edge="1">
          <mxGeometry width="50" height="50" relative="1" as="geometry">
            <mxPoint x="880.5" y="328" as="sourcePoint" />
            <mxPoint x="880" y="551" as="targetPoint" />
            <Array as="points">
              <mxPoint x="870" y="350" />
              <mxPoint x="870" y="377" />
            </Array>
          </mxGeometry>
        </mxCell>
        <mxCell id="c41p8q7sOi3APmtSQqrQ-176" value="" style="endArrow=block;html=1;rounded=0;endFill=0;entryX=1;entryY=0.25;entryDx=0;entryDy=0;exitX=0;exitY=0.5;exitDx=0;exitDy=0;" parent="1" source="CzM0XpDcJFoaD7P1eEA3-6" edge="1">
          <mxGeometry width="50" height="50" relative="1" as="geometry">
            <mxPoint x="920.5" y="365" as="sourcePoint" />
            <mxPoint x="820.5" y="392" as="targetPoint" />
            <Array as="points">
              <mxPoint x="870" y="420" />
              <mxPoint x="870" y="392" />
            </Array>
          </mxGeometry>
        </mxCell>
        <mxCell id="c41p8q7sOi3APmtSQqrQ-177" value="(T,E)" style="text;html=1;align=center;verticalAlign=middle;resizable=0;points=[];autosize=1;strokeColor=none;fillColor=none;" parent="1" vertex="1">
          <mxGeometry x="610" y="600" width="40" height="20" as="geometry" />
        </mxCell>
        <mxCell id="c41p8q7sOi3APmtSQqrQ-178" value="(T,E)" style="text;html=1;align=center;verticalAlign=middle;resizable=0;points=[];autosize=1;strokeColor=none;fillColor=none;" parent="1" vertex="1">
          <mxGeometry x="820" y="410" width="40" height="20" as="geometry" />
        </mxCell>
        <mxCell id="c41p8q7sOi3APmtSQqrQ-179" value="1" style="text;html=1;align=center;verticalAlign=middle;resizable=0;points=[];autosize=1;strokeColor=none;fillColor=none;" parent="1" vertex="1">
          <mxGeometry x="108" y="880" width="20" height="20" as="geometry" />
        </mxCell>
        <mxCell id="c41p8q7sOi3APmtSQqrQ-181" value="" style="endArrow=oval;html=1;rounded=0;startArrow=none;startFill=0;endFill=0;fontFamily=Verdana;" parent="1" edge="1">
          <mxGeometry width="50" height="50" relative="1" as="geometry">
            <mxPoint x="-550" y="410" as="sourcePoint" />
            <mxPoint x="-550" y="430" as="targetPoint" />
          </mxGeometry>
        </mxCell>
        <mxCell id="c41p8q7sOi3APmtSQqrQ-182" value="Name" style="text;html=1;align=center;verticalAlign=middle;resizable=0;points=[];autosize=1;strokeColor=none;fillColor=none;fontFamily=Verdana;" parent="1" vertex="1">
          <mxGeometry x="-575" y="430" width="50" height="20" as="geometry" />
        </mxCell>
        <mxCell id="c41p8q7sOi3APmtSQqrQ-183" value="" style="endArrow=oval;html=1;rounded=0;startArrow=none;startFill=0;endFill=0;fontFamily=Verdana;" parent="1" edge="1">
          <mxGeometry width="50" height="50" relative="1" as="geometry">
            <mxPoint x="-460" y="410" as="sourcePoint" />
            <mxPoint x="-440" y="431" as="targetPoint" />
          </mxGeometry>
        </mxCell>
        <mxCell id="c41p8q7sOi3APmtSQqrQ-184" value="Surname" style="text;html=1;align=center;verticalAlign=middle;resizable=0;points=[];autosize=1;strokeColor=none;fillColor=none;fontFamily=Verdana;" parent="1" vertex="1">
          <mxGeometry x="-470" y="431" width="70" height="20" as="geometry" />
        </mxCell>
        <mxCell id="c41p8q7sOi3APmtSQqrQ-189" value="" style="endArrow=oval;html=1;rounded=0;startArrow=none;startFill=0;endFill=0;fontFamily=Verdana;" parent="1" edge="1">
          <mxGeometry width="50" height="50" relative="1" as="geometry">
            <mxPoint x="438" y="863" as="sourcePoint" />
            <mxPoint x="438" y="883" as="targetPoint" />
          </mxGeometry>
        </mxCell>
        <mxCell id="c41p8q7sOi3APmtSQqrQ-191" value="Surname" style="text;html=1;align=center;verticalAlign=middle;resizable=0;points=[];autosize=1;strokeColor=none;fillColor=none;fontFamily=Verdana;" parent="1" vertex="1">
          <mxGeometry x="470.5" y="884" width="70" height="20" as="geometry" />
        </mxCell>
        <mxCell id="c41p8q7sOi3APmtSQqrQ-192" value="Name" style="text;html=1;align=center;verticalAlign=middle;resizable=0;points=[];autosize=1;strokeColor=none;fillColor=none;fontFamily=Verdana;" parent="1" vertex="1">
          <mxGeometry x="413" y="884" width="50" height="20" as="geometry" />
        </mxCell>
        <mxCell id="c41p8q7sOi3APmtSQqrQ-193" value="" style="endArrow=oval;html=1;rounded=0;startArrow=none;startFill=0;endFill=0;fontFamily=Verdana;" parent="1" edge="1">
          <mxGeometry width="50" height="50" relative="1" as="geometry">
            <mxPoint x="501.82" y="863" as="sourcePoint" />
            <mxPoint x="501.82" y="883" as="targetPoint" />
          </mxGeometry>
        </mxCell>
      </root>
    </mxGraphModel>
  </diagram>
</mxfile>
